Coordinates
version=1
nRows=26
nColumns=24
inDegrees=yes

Units are S.I. units (second, meters, Newtons, ...)
Angles are in degrees.

endheader
time	pelvis_tilt	pelvis_list	pelvis_rotation	pelvis_tx	pelvis_ty	pelvis_tz	hip_flexion_r	hip_adduction_r	hip_rotation_r	knee_angle_r	ankle_angle_r	subtalar_angle_r	mtp_angle_r	hip_flexion_l	hip_adduction_l	hip_rotation_l	knee_angle_l	ankle_angle_l	subtalar_angle_l	mtp_angle_l	lumbar_extension	lumbar_bending	lumbar_rotation
      3.38500000	    -12.16072765	     -1.07516030	      8.05819689	     -1.81597825	     -0.04233678	      0.44214224	     37.72132628	     -4.12661283	     -8.92567094	     -5.70794874	     -5.92890656	     11.32535556	     17.13591265	     -5.29506101	      2.93127736	     15.96774891	    -12.14543363	      8.74211045	     -0.79357300	      1.16658386	      9.85167578	      0.88980134	     -7.14329542
      3.39000000	    -12.24204280	     -1.36983421	      8.10846598	     -1.80774390	     -0.04341921	      0.44229420	     37.77411512	     -3.85319808	     -8.91050516	     -5.92385111	     -5.91149847	     11.14947504	     17.08148686	     -5.34781992	      2.58738910	     15.99518242	    -12.80436327	      8.61022615	     -0.56022497	      1.24090633	     10.02704488	      1.22848728	     -7.18921138
      3.39500000	    -12.30874221	     -1.67682875	      8.14536176	     -1.79951152	     -0.04448296	      0.44259599	     37.83632274	     -3.54352525	     -8.81495387	     -6.30595409	     -5.96686483	     10.77310529	     16.87739288	     -5.37090133	      2.21169237	     15.92427655	    -13.53476675	      8.55046642	     -0.07330234	      1.44992198	     10.17358022	      1.56363858	     -7.28268281
      3.40000000	    -12.39890513	     -1.98619803	      8.12942248	     -1.79109759	     -0.04554885	      0.44292078	     37.93136297	     -3.19930067	     -8.69254672	     -6.81825179	     -6.06305293	     10.33486790	     16.59670638	     -5.36616728	      1.84401472	     15.77351955	    -14.28217019	      8.36617645	      0.35430873	      1.66275187	     10.37159996	      1.91764458	     -7.28931730
      3.40500000	    -12.50868034	     -2.30637878	      8.09386070	     -1.78260675	     -0.04662000	      0.44324899	     38.06192628	     -2.83722844	     -8.57125338	     -7.44833371	     -6.25175689	      9.87034406	     16.34922766	     -5.32521924	      1.47096623	     15.64621801	    -15.06438218	      8.12380866	      0.77637411	      1.90345196	     10.59929161	      2.29161157	     -7.31470438
      3.41000000	    -12.62613002	     -2.62134408	      8.03601030	     -1.77406624	     -0.04765710	      0.44370998	     38.20039348	     -2.45230372	     -8.39536041	     -8.14824599	     -6.57710433	      9.29391862	     16.04300759	     -5.23096746	      1.09545402	     15.38127176	    -15.91617571	      7.81677011	      1.31655806	      2.25282931	     10.83300245	      2.64765773	     -7.28802468
      3.41500000	    -12.75299423	     -2.94743741	      7.95113690	     -1.76543186	     -0.04865744	      0.44419388	     38.34427868	     -2.03995525	     -8.20228009	     -8.89042508	     -7.02660783	      8.71164924	     15.76680786	     -5.10321279	      0.70875540	     15.07872420	    -16.80977706	      7.42723898	      1.89191297	      2.66103572	     11.08814099	      3.02919846	     -7.24672728
      3.42000000	    -12.89406715	     -3.29173382	      7.83923146	     -1.75672279	     -0.04961022	      0.44477560	     38.49836225	     -1.58744259	     -7.98382456	     -9.64539763	     -7.61945873	      8.09752443	     15.53035132	     -4.92571545	      0.29445710	     14.69341189	    -17.75129427	      6.96133815	      2.54762683	      3.16036525	     11.36550426	      3.42580486	     -7.17613970
      3.42500000	    -13.03391621	     -3.63415513	      7.69564860	     -1.74799459	     -0.05049471	      0.44548933	     38.65361631	     -1.10421530	     -7.73295830	    -10.40009534	     -8.33606746	      7.41897509	     15.34950920	     -4.70618215	     -0.13179491	     14.19848515	    -18.74923487	      6.39816779	      3.29335536	      3.80684484	     11.63561938	      3.81932007	     -7.07409599
      3.43000000	    -13.18439011	     -4.00531298	      7.51574581	     -1.73924971	     -0.05127624	      0.44628633	     38.81801445	     -0.56923851	     -7.45748486	    -11.12336312	     -9.18600680	      6.74687234	     15.25365258	     -4.43418534	     -0.59854566	     13.63981507	    -19.79299742	      5.72995102	      4.10129430	      4.57258447	     11.91463356	      4.24951456	     -6.95261098
      3.43500000	    -13.34479872	     -4.39512937	      7.30082437	     -1.73051048	     -0.05193308	      0.44718645	     38.99127679	      0.01146950	     -7.12990840	    -11.80791573	    -10.11651496	      6.05669064	     15.23204314	     -4.10427081	     -1.10099724	     13.00162614	    -20.88776816	      4.95078359	      5.00616299	      5.46349475	     12.19847629	      4.70401705	     -6.81185189
      3.44000000	    -13.47169427	     -4.81007415	      7.02482445	     -1.72173747	     -0.05238001	      0.44818555	     39.11882295	      0.67221095	     -6.69382784	    -12.42967837	    -11.14843694	      5.24964002	     15.42502596	     -3.80486534	     -1.64920876	     12.33017228	    -21.91855416	      3.78760800	      5.71606751	      6.97917772	     12.44035447	      5.20549034	     -6.59031548
      3.44500000	    -13.66964093	     -5.24062061	      6.77708432	     -1.71309131	     -0.05280875	      0.44922284	     39.35893618	      1.31841575	     -6.27962653	    -13.12150744	    -11.94067068	      4.61555510	     15.40837609	     -3.30050027	     -2.22993191	     11.55317324	    -23.18338971	      2.89373416	      6.92882165	      7.88280515	     12.74114148	      5.69934679	     -6.45664532
      3.45000000	    -13.85008601	     -5.67640918	      6.46198084	     -1.70443651	     -0.05306250	      0.45042292	     39.57767717	      2.04693094	     -5.68266871	    -13.79873092	    -12.72350476	      3.75405641	     15.35078540	     -2.79593091	     -2.84182907	     10.72931241	    -24.42482549	      1.70083867	      8.04629791	      9.16571762	     13.00786170	      6.21461100	     -6.24122449
      3.45500000	    -13.97973992	     -6.14312976	      6.13869491	     -1.69570907	     -0.05307702	      0.45157475	     39.72497945	      2.82843396	     -5.05561630	    -14.46841288	    -13.39916175	      2.83298455	     15.22797070	     -2.34299884	     -3.49912536	      9.98511463	    -25.55665614	     -0.04121615	      8.78643959	     11.34166374	     13.22688992	      6.78037036	     -6.00853705
      3.46000000	    -14.15334671	     -6.53982951	      5.82343433	     -1.68717974	     -0.05312583	      0.45286014	     39.96440802	      3.55234796	     -4.38128568	    -15.25913418	    -13.77704287	      1.96841926	     14.95015982	     -1.72044889	     -4.11128664	      9.16686897	    -26.93014833	     -1.47738014	     10.10752784	     12.69790623	     13.44462656	      7.24937236	     -5.80277002
      3.46500000	    -14.23435251	     -6.96589387	      5.48859471	     -1.67845402	     -0.05291247	      0.45405963	     40.07278143	      4.33715095	     -3.76014812	    -16.06686153	    -13.89931951	      1.19536435	     14.27024117	     -1.23071061	     -4.76750347	      8.42106265	    -28.09482605	     -3.66036747	     10.86875257	     15.32202733	     13.58618560	      7.78021499	     -5.56299965
      3.47000000	    -14.35684529	     -7.36517138	      5.18152781	     -1.66987611	     -0.05271892	      0.45525882	     40.21885668	      5.09691167	     -3.07256716	    -16.89102463	    -13.94157604	      0.27585461	     13.46183312	     -0.58734065	     -5.39037351	      7.74651623	    -29.44519550	     -5.73140572	     11.79982491	     17.27949585	     13.74210625	      8.26786902	     -5.38481294
      3.47500000	    -14.43577885	     -7.72064369	      4.88100627	     -1.66122300	     -0.05244706	      0.45646314	     40.29923495	      5.82645193	     -2.47922251	    -17.74498994	    -13.69606736	     -0.51948560	     12.50883883	      0.03080834	     -5.98137508	      7.12593876	    -30.76233580	     -8.04088958	     12.69926397	     19.45678863	     13.85686454	      8.70614649	     -5.19650146
      3.48000000	    -14.47906106	     -8.04736785	      4.60616629	     -1.65271504	     -0.05210660	      0.45759101	     40.31633110	      6.51820974	     -1.92310498	    -18.57516127	    -13.33415123	     -1.21704080	     11.47864022	      0.68079063	     -6.53161183	      6.61002820	    -32.12885959	    -10.47861547	     13.52169197	     21.61667743	     13.90073583	      9.11609029	     -5.02493970
      3.48500000	    -14.49143222	     -8.34748670	      4.34667003	     -1.64428196	     -0.05171795	      0.45866525	     40.26648443	      7.17559608	     -1.45034699	    -19.36267589	    -12.86133071	     -1.81613200	     10.44681954	      1.35117272	     -7.04461692	      6.17046221	    -33.52239936	    -13.00541729	     14.26066946	     23.71936662	     13.89744936	      9.49984253	     -4.85514518
      3.49000000	    -14.47474116	     -8.63179639	      4.09847190	     -1.63591189	     -0.05129268	      0.45967549	     40.14440048	      7.80430923	     -1.07050627	    -20.08511033	    -12.30940502	     -2.31303410	      9.49521915	      2.03917953	     -7.52898599	      5.79599537	    -34.94635244	    -15.53104510	     14.93541092	     25.66414953	     13.85170523	      9.86760190	     -4.67582436
      3.49500000	    -14.43016309	     -8.90834073	      3.86259702	     -1.62762644	     -0.05083692	      0.46062554	     39.94864981	      8.40678210	     -0.78605053	    -20.72976322	    -11.68998092	     -2.69436394	      8.63491726	      2.74821577	     -7.99332289	      5.47280159	    -36.40738176	    -17.98991143	     15.51840168	     27.43572165	     13.76498949	     10.22626682	     -4.49225231
      3.50000000	    -14.37050331	     -9.18649345	      3.63721977	     -1.61942157	     -0.05036996	      0.46154266	     39.68678431	      8.99411402	     -0.56197921	    -21.27804291	    -11.06008331	     -3.01400091	      7.91877381	      3.49336326	     -8.44982631	      5.18983720	    -37.92694073	    -20.25301973	     16.03058703	     28.92012941	     13.65516768	     10.58081509	     -4.31163385
      3.50500000	    -14.34234754	     -9.47783605	      3.40519953	     -1.61136155	     -0.04997004	      0.46252970	     39.42297961	      9.59106889	     -0.39395752	    -21.72364885	    -10.59308219	     -3.46818666	      7.45186675	      4.34327713	     -8.92449323	      4.90760979	    -39.56759338	    -22.12758964	     16.56406568	     29.91725859	     13.55992067	     10.93215041	     -4.09794113
      3.51000000	    -14.22813190	     -9.77389327	      3.22751153	     -1.60330355	     -0.04944587	      0.46336739	     39.00403506	     10.14748546	     -0.28772613	    -22.08381220	     -9.90486501	     -3.62464355	      6.93543381	      5.12593444	     -9.38951157	      4.67421954	    -41.18076640	    -23.90420796	     16.70052492	     30.99765395	     13.38756171	     11.28741929	     -3.96326453
